/* XPM */
static char *_766df4a6cc44f4be99f896f1ca574fb4YJz6DuHf53cAV3G[] = {
/* columns rows colors chars-per-pixel */
"64 64 152 2 ",
"   c #4F2400",
".  c #522600",
"X  c #5F3208",
"o  c #643B0D",
"O  c #673B14",
"+  c #663F18",
"@  c #674019",
"#  c #6A421D",
"$  c #6F481F",
"%  c #724724",
"&  c #754C23",
"*  c #794E25",
"=  c #764E2A",
"-  c #7C5426",
";  c #765029",
":  c #7C542C",
">  c #7F582F",
",  c #7E5630",
"<  c #7E5831",
"1  c #82562C",
"2  c #855A2E",
"3  c #885E2F",
"4  c #835730",
"5  c #855B32",
"6  c #895E33",
"7  c #865F38",
"8  c #88602F",
"9  c #876035",
"0  c #8C6235",
"q  c #876039",
"w  c #8E6439",
"e  c #8E683C",
"r  c #906637",
"t  c #916837",
"y  c #91663A",
"u  c #946A3D",
"i  c #986E3E",
"p  c #96703F",
"a  c #99703F",
"s  c #8E6841",
"d  c #966C41",
"f  c #996E42",
"g  c #967043",
"h  c #9C7244",
"j  c #9E7847",
"k  c #9E7549",
"l  c #9F794B",
"z  c #A07647",
"x  c #A07847",
"c  c #A17649",
"v  c #A57B4B",
"b  c #A47C4B",
"n  c #A47F4B",
"m  c #A67E4B",
"M  c #A1784C",
"N  c #A2794D",
"B  c #A17B4C",
"V  c #A07A4D",
"C  c #A37A4C",
"Z  c #A17B4E",
"A  c #A37A4E",
"S  c #A4794C",
"D  c #A47B4D",
"F  c #A4794E",
"G  c #A47B4F",
"H  c #A67B4E",
"J  c #A27C4D",
"K  c #A37D4E",
"L  c #A27C4F",
"P  c #A57D4C",
"I  c #A67C4C",
"U  c #A77D4D",
"Y  c #A67E4D",
"T  c #A57C4E",
"R  c #A67D4F",
"E  c #A47E4F",
"W  c #A57F4E",
"Q  c #A77F4E",
"!  c #A37A4C",
"~  c #A87E4E",
"^  c #A37D50",
"/  c #A67D51",
"(  c #A57F50",
")  c #A47E51",
"_  c #A77E50",
"`  c #A57F52",
"'  c #A67D51",
"]  c #A87F51",
"[  c #A97E51",
"{  c #A7824E",
"}  c #A9814E",
"|  c #A8804F",
" . c #A8834F",
".. c #AA824F",
"X. c #A8804F",
"o. c #A68051",
"O. c #A78152",
"+. c #A68053",
"@. c #A78154",
"#. c #A68051",
"$. c #A98150",
"%. c #A88251",
"&. c #AB8350",
"*. c #AA8251",
"=. c #A98052",
"-. c #AB8053",
";. c #AA8153",
":. c #A88253",
">. c #A98352",
",. c #AB8352",
"<. c #AA8453",
"1. c #AC8453",
"2. c #AE8653",
"3. c #A98354",
"4. c #A88255",
"5. c #AB8254",
"6. c #AC8355",
"7. c #AB8554",
"8. c #AA8455",
"9. c #AB8556",
"0. c #AD8554",
"q. c #AC8655",
"w. c #AF8754",
"e. c #AE8655",
"r. c #AD8456",
"t. c #AE8557",
"y. c #AD8756",
"u. c #AC8657",
"i. c #AF8756",
"p. c #AB8153",
"a. c #AD8758",
"s. c #AD875A",
"d. c #AE8558",
"f. c #AE8859",
"g. c #AF8958",
"h. c #AF895A",
"j. c #B08855",
"k. c #B18956",
"l. c #B08857",
"z. c #B08857",
"x. c #B08759",
"c. c #B08759",
"v. c #B08A59",
"b. c #B38B58",
"n. c #B18B5A",
"m. c #B38A5C",
"M. c #B28C5D",
"N. c #B78F5C",
"B. c #B58C5E",
"V. c #B68D5F",
"C. c #B18958",
"Z. c #B78E60",
/* pixels */
"P x j b b h j P b j h b b F ] c C P c b P _ ,.,.9.b K 5.s.s.@.s.9.C.<.<.9.P ,.,.{ b b | e.| l.| P P P b b b j b b j x h j j P P ",
"b ,.1.P P ,.| b F P j P F C F j d c _ j h b C ,._ C _ 9.s.9.5.f.e.f.<.9.C.e.<.<.e.| 1.B.l.,.C.| ,.P | P b P P ,.P b P | P x | l.",
"e.| P ,.1.P P ,.| e.b ,.,.] e.5.m.,.B.Z.B.s.K M.e.9.@.9.s.5.@.K P e.f.@.l h j ] u j b b ,.j b | ,.P 1.,.P ,.e.e.,.P b ,.,.| | e.",
"b h a h j j j b b | j k P k ] _ b j F F 5.e.l l l ,.5.9.,.K ,.@.K @.f.5.,._ j F b F b g e.P b b x g b b j b b j g x h j g j h j ",
"z g i j z z j z z P b j F f c j j C C C P _ P C _ 5.K P P b C h C C C h k k d k P b ,.F f c ,.h j i z x h z z h z z i i a z g g ",
"z h a h j h j b z z b g c f F F g h g b b f u g j j h l _ ,.@.l c C C h h f d k u g c c 1 u f f j i g a i h h h h h u u g a u g ",
"0 i u 0 0 u g u u u i u y u h b d h k h C _ k d g k @.) l k l @.d h g k ] F h u c F h f u c u f u r 0 0 r u u u 3 r u r 0 2 3 u ",
"u u i h h i g z g g b v u h u f _ d h h k k d l g d l l C ) l l j F j k b j c z h f c g h h h c j g i u a h u i u i u r h h i u ",
"r y u r u 6 u f u u f u u f y u u w d u C k 5.d h g g l K g l l _ j b g u h i i h i u u i j i g y 0 f i f u h u h h u u w w y u ",
"2 1 2 3 1 y 2 f y w 0 3 y 6 6 0 w u u h d h d 0 u w u k ) k k g g g b h u j h P h g z g g r u j u i u y f u y y y u h 2 w w h 6 ",
"u y w u w w w f u u y 2 f u d w 0 d u C u d e e 2 9 g k l k C K r.b b h g g t u g g u i u 0 0 u w u w y k f f u u w y y y 0 u w ",
"u u y u f y d d u f f h F w f F h h u k C F l h @.) s.@._ K l k P P P b b j g b g g F i c 3 u f y w 6 y w w u 5 w y w y 6 u f w ",
"d y u w w u 1 5 6 u w y h h f u u k C h h u k l l k ) k k l C K K _ ) l k g d j h f u u h f d u w w 5 w w w h u w 0 0 w w w d y ",
"4 5 w 1 1 1 : 2 2 1 2 y u 0 w d u d y u u d d e e d k d e e g h h g d g h h h h w 0 f 6 w 1 6 w 1 6 2 5 w 5 5 5 5 y 5 5 1 0 6 5 ",
": 5 6 : * O & & 5 : 5 6 y y y 0 0 u y u u w e u g d d u d d h d u g h g e w u u d 0 w 5 5 6 > 6 * 1 5 5 y w 6 0 6 6 : y 5 1 & 6 ",
"6 5 5 5 : 5 * 5 1 & w w w 5 6 w 6 w w 0 w 5 0 e q w w q 9 5 u u e e e e 9 6 q , q ; 5 : > 1 = 6 0 1 w 5 w 6 y 6 1 6 6 6 y 1 1 6 ",
"w w w 0 y 6 6 5 w q 6 d q q w 6 d 0 d w e > 7 e d k q 7 = : 5 e s q q : @ + # : , 5 5 q 5 6 w 6 y 0 q 0 0 w 0 w 6 w y 6 w 0 w 5 ",
"5 0 w 6 5 1 5 6 6 0 6 w 5 1 6 5 q 5 5 ; 5 7 7 > < : = # @ $ < , ; ; @ % = : : & % > 5 e 6 0 w w w 0 0 0 w u w 0 w w w w w 0 y w ",
"w w d u 0 5 w u y w 5 w y u w 2 5 w w 6 1 : 5 6 q e > = & 5 < q w 7 > > 7 e ; & > w e f d d u r u u u 0 w u u y w y w u y 0 u u ",
"0 3 0 w 0 0 0 0 0 y w u w u 0 0 0 0 0 u w 0 w e s w w e - e q w e e g w e k 0 d w d e d f g u r w u u 0 6 0 0 0 w y 0 d u 0 0 y ",
"u 8 0 t 0 t u 0 0 t w 0 0 w 0 u 0 t w u u h u u u u g e g u u j d l d d u u u h u h u u g z h h u a j j g u u u u a u g u u u t ",
"u u u u t u a u g u t u u g u u u u g g u u u k h e g g g u g g u g u u u g f h d j g j a h a h a u u g h g u u u g u a u a a u ",
"3 u 0 r 3 3 r 0 u r u i y u 0 u g 0 u d u g u c h k g g h u u g a g u u 0 a u u y g f h t 0 0 r i r r r u a u u 0 t 0 0 0 0 r w ",
"- u 3 0 3 2 0 3 u 2 2 0 6 w 3 2 w w f 0 6 u 5 0 5 0 h 0 g 2 g t 0 h 0 0 0 0 g 3 u u a x u t t u u u u r y u 0 0 0 0 w 3 6 2 w 0 ",
"w 6 0 2 6 y y y w y u y w y u y y 6 u d u d d w h k h h d u u u 0 u h f g u u u u h r g u r u i f y w f u y w u y y w w w w w 6 ",
"g u u 2 6 w u f u f f f f   0 6 u y u 6 . y w y f d d u f k g h j g d w u u g g u h g z h g j j k h f f y u y w f w d u u u 0 u ",
"0 y y f 6 y 5 w u 6 y w y k u y y h h y h 5 w d u w h u u h d C k f d u h h f y u f h u u y u y w y y y w u d u y 6 y y w w 5 y ",
"w y f f d y w y y h w f y d d 5 f 6 y M w f y u k d f u f k f h f h k f f u f f u u h u u u d d d u u f u d f h u f u f d u d f ",
"u u u u i y u y u u y f h u k u d f d y y f y k c h d f h h g u h f f u u u g g h i h u f u f f f f u f y u u u u u u u u u u f ",
"0 u 0 u u u u y 0 u y u y u f f u h u h h y f h f h f h j g j g h f h f h h h i h g f f f u u y y u u u w u u r y 3 y t y r 6 u ",
"u u i r i r j i g w u y f u u u z u j y y h c h j f f h b P z j h z F h i t a h i h u g g g h i i a i i u a i u g t i u u i r a ",
"0 u 0 u 3 0 w 0 0 w w 0 w 6 w 3 0 y w u y w y w u y h u u g u h v h h i h h i r u j u i y u g u i t r u u u 0 0 u u 0 0 0 0 u r ",
"y y u w y w w 0 u y 6 y y 6 y w 6 w 0 y u y u d f f / h u g ] g _ F h h h b h h f f f h f u u h u u u y h y f f w u w u w 6 w h ",
"y y w 0 5 5 5 5 . 1 2 2 5 6 y 6 u y d w w y w h f y u u f u u y u k k h u u y y y u f d y u u w y f u u u u d f w y d y y 2 u 2 ",
"0 6 1 5 2 6 6 w y u w u u u 1 u y d w u f u u 0 d f f f c y 0 y u c c g u f u u y 0 y f u i f u u f u 0 u y u w 6 w w y 6 d 6 6 ",
"2 1 1 5 5 0 w u y 6 1 u y w y y w w y 0 w w 0 w y y w 6 f u w 2 u g u u u h f u f 0 w u u u u u u u y 2 w 5 w 5 w 6 5 6 w 1 y 1 ",
"w w y y y 6 y u w 6 f y w f u u d u d d k k w 0 d h k d d h C C f c b F c j f j u f 0 6 y u y y 6 u w y 2 6 6 y 6 6 6 5 6 y 1 6 ",
"u r y y f u u y u h u u z f c h d c f f u 0 f h C d h h k c ] c h b c F h f u h u f 0 0 f u w u 3 w 6 r 0 6 6 w w u 6 6 2 y d u ",
"u w 6 r f h f y y c c h h k h h k d h h k F d k h d C C k f k k P P c j h h f h g f y y u w 3 y 6 w 6 3 r 0 w 6 u 2 2 y X w w 2 ",
"f h i h f z h h j j u F u f c g c h w d C k k h M k C c _ C _ _ C ] F b c F j h f f u u u u u y y f r u y h h z h h f 6 f f f c ",
"u h i z h y g j c c u h b j h u C c C k h C 5.5._ h k _ _ h c C P ,.F b h F c h h u j h u f u u f u g y c y 2 u y f y w u w f u ",
"h f z z F F c j j c h b b j P F c h c _ C C C F _ k _ F _ ] _ b ,.F b ] ] F c b F F u h F c c c c g c F ,.c u c g F f k h h k h ",
"u i c f f f j c c c h c h g _ ] b h c ,.r.5.] C C k r.b j C P e.r.x.,.k b C C C ] ] r.F F c u c C j c P b b c b u j h b d d k c ",
"z v F ] F h ,.h j h f c h h F f g j k j j c k g j w u u u d u b h h j h ] b c P j c c ,.F f c u P P b k c F ,.F c j b F _ C 5._ ",
"h F ] ] g 0 h h u u u h h c h 3 u h c f u u h c u w j g u w 6 z j c j f F k h h h b c c u y P ] u b b j ,._ P g k b ,._ b h ] ,.",
"P h j c c C c h c c f h h c c y u u u u u u f h u 0 u u f f y i 0 h h 0 y g c c C b P F r.r.g h ,.,.P u P ,.x.s.F r.x.x.b C ] x.",
"5._ C _ k k 0 5 h f y u u y f u f u w 0 u y 6 2 3 6 w 2 6 6 0 y g j b | z g g b x ,.z z v j b v j p j j _ @.C C 9.,.C K P 9.b h ",
"6 w * 2 0 f h u y u y h k d f f u h u y u h f u y y w 6 y w w w f g f j j b h u h u c h u h u t h 0 f C C @.C P P @.,.h c g u u ",
"c c j f w f h u z h u f u u u y f u u y y h u y u w y f 0 y u w g y 6 u d u C u y u f j _ 2 5 u d u h C M s.[ C h u C k c h d h ",
"F c h j u h h u u u g f u f u u f y u u f u u u y u u f u u y u 0 w y w 0 w h w u h d k u u u u c f k F k h d d f f M f d f f k ",
"h f f h u f h h h h h g f h c j c f h g j g h b c F c F F c f z k k k C h k C k C c c 5.0 d h _ w u C F ] ,.F c ] b h u c b c c ",
"c c F P h f c ,.j b f c P g ] g h c z h u h h F c f f c j b c h _ k k C h C k C k k k 0 * w C _ ,.c F C F u u b c c h h c f h P ",
"h c ] ] c f h j F F f c F f ] c c ] ,.r.F ] ] ,.] c h ] F ] F c F _ 5.C h 5._ _ _ h _ 5.s._ _ 5.F ] -.h h j c b h F F z b f j P ",
"c b ] P ] F F F F j c c j h b P c c F F ] c P ] ] r.] r.,.F h F C F _ C C 5.C C _ _ _ c _ 5._ F c h c F F g u h j F F f j c c j ",
"u y y y h f f u f f b c h c f f k c j g j f F b P _ _ e.,.F c _ F b b b P C j k f g f g h u u u f u f u 0 f u 0 u u h u u u u j ",
",.F F F r.F c h b F h f u c F h h P h h d j c f ,.j b r.j j c h j ,.e.c k j b c g j b h _ F ,.u c f h j f F c f c w f h F c h R ",
"f f y g w h f f h u h h u 0 f F g g c u u C ,.h g b c b j h d b ] C C _ j f j h 0 j j g j j g h u j F h h f h f h g y 0 u f c h ",
"f h f f w u f h F h u h f h h h 6 h u g F g h P j P P b b j j b 5.b j b h h c f b c h h j f f F b P c F h ] c c c F j h h h c h ",
"f u u w y y u u g u F f f f y y g k o u w ] 0 h d h k u h j P _ h g a g u g b j j u u j b h u g b j c f c h b j f j h h f u u u ",
"c f u y h f u y c F y h u g c h u u j j c h d g b F P b F P ,.,.b v b b j j b b b j j j j b P b c c j c h h h c c c h h h h h g ",
"f f f h j c f c j c h c u u i h h g b k u j b h g h b _ F P c k b b j j j j b j h b P b u g b j h h h j f f f g h h f u f h h h ",
"f f f j f c f F c F c u u * z z h P F _ F h P k c c b 5.P ,._ ] b P b b b b R | e.P P b j b ,.| ] b F h F j b c c z c h h h h c ",
"r.c j c g c u h F h c F c F c R k P k F ,.j C c ,.] ,.,.P _ ,.] b | P P b g x P P b b P ,.1.,.b v F h c g b j z j h z j z b h h ",
"F u f h f b f h F j F F h R h F k j F F c b C _ C F e.,.,.,.x.] P 1.1.C.l.| | ,.,.,.| b b ,.e.C.b v R z z h z b z i h h v R h g "
};
