/* XPM */
static char *_7ba469938d444dcf7c241d43b6b9d54Uo58hoKCY2PVtKvO[] = {
/* columns rows colors chars-per-pixel */
"64 64 31 1 ",
"  c #AAAAAA",
". c gray67",
"X c #ACACAC",
"o c gray68",
"O c #AEAEAE",
"+ c #AFAFAF",
"@ c gray69",
"# c #B1B1B1",
"$ c #B2B2B2",
"% c gray70",
"& c #B4B4B4",
"* c gray71",
"= c #B6B6B6",
"- c #B7B7B7",
"; c gray72",
": c #B9B9B9",
"> c gray73",
", c #BBBBBB",
"< c #BCBCBC",
"1 c gray74",
"2 c gray",
"3 c gray75",
"4 c #C0C0C0",
"5 c #C1C1C1",
"6 c gray76",
"7 c #C3C3C3",
"8 c gray77",
"9 c #C5C5C5",
"0 c #C6C6C6",
"q c gray78",
"w c #CACACA",
/* pixels */
";=+==%;==;3;;;;====%===;=;3====;;;;3=%;;;;;%;;;=;=;=3;=%;;;3===;",
";;%;;=;;===;;;==;;==;;==%=33=%=3===3;%;=%=;;===;==;=;%==;==;=;;=",
";;;;;=;;3==33;==;;==33==;=;;=%%3=;;;==;===%3;3=;;;;;;==;=;===;;;",
";;;;;;333;=;3=%%=;;=;==;3;;==%%=;;;==;;=3=%==;;;;;;33====;;;==%;",
"=;;;;;;33;===%++;;;;;;;;==3;==%;==;==343;==%%%==;=;3;=%%;3;3;%+;",
"==;;;;==;;====%%;;==;;==3;;=%==;==;;;43;;;;%;=;%===;=%%;;;=33;%=",
";===;;=======;;=;=%%=;==4;=%%==;;=;;;3;;3;=;33;==;;;===;=3=;;3==",
"3==%=;====%%=;;;==%%%%=;%%;;=+%3;%===3;;==%;==%;=;=;;3==%3;==3=;",
";;=%%=;===%%=;;3;;=%%+%==+%==========%=;==;3;;======;===;;3;;3==",
";====;;=====;;;;;;==%%===%=;;========%=;==;;;=;=========+%;3;3==",
"=%===;;%%==;3;;;;;=%%==;;;;=;==;;======;=;3=;;3;=========;=;+;%;",
"==%%=;;====;;;;3;=%%%==;=;;====;;========;3;;;;=;;;=====;;==+=;4",
";;;==;;;;;;;;==;;==%==;;=;;====;;====%%====;=;==;;;;===%%=;==%==",
";;;;==;;=;;;;;========;;;;;====;;;;========;===;=;;;====33934=3;",
";==;=====;;=;;=========;3;=;==;;=;;;==;;=;=;=;====;==;=%====;%;;",
"=%%======;=%=;====;====;=%;43;=%==;====;%=;=;;;%==;==;=%=;=;=%==",
"%==%=;==%%%%=;;==;=3;3;;%=;33;;;%=;==%;;=%=;;3;%=======;;===;%%+",
"===%%=;=;;==;;=%=====;;;%=;3;;;=;=%==;===%=;;;3======;;====%=+%%",
"====%=3;3;=;3;;===;;3;;;;;33;;;;;=%=%;==;==;=;33%=;==;;===;==+%=",
"=%==%=3;3;=;33;;==;;4;;=;;3;;=;3;==%==;;;==;==33==;==;;===3==%%;",
"3=;;%=;=;===;;==;==%;=;;;;33;==;;=;===;;;%=;%%;;=======;==3;=%%=",
"3;;;==;=========3=======;;343;=%==%==;;;;=;;==;=;==;===;==4;;==;",
";===;;;;========;=====%%;=;33;====%==3;=;;;;=;;;=;;;===;;=4;;;=;",
"3;==;;;;;3;;===%=%.%%==;=%%=====;=;;3;3;;;;;=;3==;3;=;;=;=4===%=",
"==;;3;3;;;4;3=33===%;;;=;;;;;;===;;;;;;;==;;=;3;;;;;;;==;;;====;",
";;;=;;;;==;3=;;;3;=%;;;=;;;;;;==;;;;;;;;====;3;%;;===;;;;;;====;",
";;=====%%==3=;=;====3;;=========;;;;;;;;==;;=;;=;;=%==;3;;;===;;",
"=;==%=%%%%====;;==;;3;==;;;====;;;;;=;;;==;;=;;;=;======;;;;;;;;",
";;=;=;==%=;;==;;;;;;===;=;;=%====;;========;;33;;;==;;===;;==;;=",
"=;===;;;=;;4=;;;;;;;==%;===%%%==;;====;;==;;;;3;;;==;;;;;;;==;==",
"==;=======;3;;;;===;;;%;;;;==;;;======;;==;;=%===;=====;;;;=;;=%",
"%=;;;==%=+=%;%;%;;%;=;%;=;;==;;;========;====%%+=;;==%=;;;;==;=%",
"%;;;=3;%%%====%=;;===;;;======;;;;;=%=;=%======%=;=;;3;=;;=;;;==",
"3=;%%4=%%%==%=%===;==;;;======;;;;;;;;;;=========;;;=;;;===;;;==",
"%;%=;=4=%%;;%%%====;;;===;===;;;;;;===;;=====;;====;===;====;=%;",
"==3;;%=%%%33=%%%=%=;;;==;;;=%=;;;;;;==;;=;;;;;;====;===;==%=;=%;",
";=;33%%%%%;3;=%=====;;;;=;=%%=====;3;===;;;;;;;=;;=;==%=;=%%=%%;",
"%;=43%33;;;;==%;;;===;;;=;==%======;=%=;33;===;;;===%=%=;=======",
"==93=3=494;%;=%3;;;==;;==;;====;;=;;==;4;;;===;;====%=%=;%===;;=",
"%=;=%44394=%3;%433;%%==%=======;%%;3;=;3==;;=====;;;=;=;=%=;=33%",
"=%=3444394+===4=;3=+%==;%3;==%%;;;%;;3=;%=;==3;;=%=;;33;=%=3=;;=",
"=%===;9w==.;;;4=;3;%===;=;=%===3;;%=;3;===;;;;=3=%;3;;33;=;;===%",
"===%++=;;%=;;==+=;;%===;=====;;3;;%%=3==+=3;;;==%+=;==;=;;;;3%==",
"%%=====%=%;====%=;=%===;;====;;;;;%%%;===;3=%333%%;3;=;=;;;;3=%;",
"=%%%%==+%+;%%=;========;;=====;;3;%=%==3=+%=%%%===343;;=;3;33;+=",
";;=%+++.++==%=;=======;;;======3;=%====43;33===%==;43;;==;=;;;%=",
";;;=%%=+++%;;;33==;;;;;;;;==;==;==%====33;3%.%;;;=;33;;=%;==;;==",
";;;%%==+3=%4=%%===;3;;33;3;;3;%=%=%===%=%+;3%%====;3;=;=;;;%;;;=",
"3;%%+%=;;3;=;+====;;3;;;=;;=;;;;;;;;=====%3;==;;;===;==;==;;=;=;",
";=;%+=%3=44;;%;====;;;==%%%%======;===;=3%;33========%%%%%%==3%=",
";;3==;;3;39;3=;;===;;;=%==%=;;=======;;=3%%%===;=======%%%%==3=;",
";3%=3%4=9=3%3==;;;=;=;====%=;=%=;====;;=;%;=333==;====;;%==;====",
"%;%=;=9;9%;+;;%=;=%==;=====;;=%=;====;;===;=33;============;;;=%",
"==3==;34;%3%=;=====;;;====;;;==;;=;;;;;=;%%+===3=========;=3;;==",
";=;%%;%=%%;;=;;;;===;;;;%======;===;;;;==%;=3;=;===;;===%;=;====",
";=%%=3=%%+%3=3;3;==%==;;;;;=;;;;%%=======;;%;;;;===;;=;3;3%;;;;=",
";%+=3%=%+%%%=;3=;==;==;;===;;=;3=%%%====;========;3=;3;3;;33=;%=",
"=%%=;=;%%====;3=;=;;==;;;==;=%==;=%%====3;==;;=====%%;=;===;=;%;",
"=%==;3;%;=;;;;;=;=;;;;;;========;;======;;=;;;=====++=;;;==;=;==",
"=%;;=3=%;==;;;;=;=;;;;;;%======;;;========;;;;=;;==%%;3;;=======",
";=33;;=====;=======;;;;;;==;========;;==;;;3;;;;3;;=%33;=====%==",
";;;3;;=;===;;=;=;==;;;;;;;==;;==;;;;3;;;3;33;;=;;;;==;;=;;;;;=;=",
";3%;3;=;==;;;;;=;==;;;;;;===;;;=;;;;;;;;;;;;;;====;====;;;;;3=;=",
"=3+=;;%===;;;;;=======;;;=%=;3;==;;====;===;;;========%;===;3=;="
};
