/* XPM */
static char *f5385f1b89214583b4382e563321ab04zT4iJaz7EMMAF2xR[] = {
/* columns rows colors chars-per-pixel */
"64 64 45 1 ",
"  c #23241F",
". c #252420",
"X c #242520",
"o c #262521",
"O c #252621",
"+ c #272622",
"@ c #262722",
"# c #282723",
"$ c #272823",
"% c #272924",
"& c #292824",
"* c #282924",
"= c #2A2925",
"- c #282A25",
"; c #292A25",
": c #292B26",
"> c #2B2A26",
", c #2A2B26",
"< c #2C2B27",
"1 c #2A2C27",
"2 c #2B2C27",
"3 c #2B2D28",
"4 c #2D2C28",
"5 c #2C2D28",
"6 c #2E2D29",
"7 c #2C2E29",
"8 c #2D2E29",
"9 c #2D2F2A",
"0 c #2F2E2A",
"q c #2E2F2A",
"w c #302F2B",
"e c #2E302B",
"r c #2F302B",
"t c #2F312C",
"y c #31302C",
"u c #30312C",
"i c #32312D",
"p c #30322D",
"a c #31322D",
"s c #31332E",
"d c #33322E",
"f c #32332E",
"g c #34332F",
"h c #33342F",
"j c #343530",
/* pixels */
"urqqqqqq2q22qhhruq<<,,,,44uguuuuqujurqruq,,qruuuuuurqrqqquqqqqqr",
"urrrruurqrqqquuqwq<<<,,,<<wuuqwwquuurruuq,,qqruruuurqrqqquqqrqqq",
"rqqqrrrrqurqquuqwq<<<,,<,,quwqwqqruuruuuq2qrrruquuuurrrqqurquqqq",
"qqqqqqqq2qqqqruuwq<<<,,,<<quqqqqqqrrruurrqqurruquuuuuuurquqqqq2q",
"qqqqqqqq,qqqqquuwq<<<,,,q<qwq<qqqqqqqqqqqqqrqqrqquuurrrrruq2qq2q",
"qqq2qqqq2qqqqqruwq<<,,,,<,qq<,4qqqqqqqqqqqrrqqrqqrurqqqqquq2q22q",
"qq,2qqq2qqqqqqqrqq,<,,,,,,quq<4<qqrqqqqqrqurqruqquuuqqqqrrq2qq2q",
"rrqqqqq2,,2qqqqqq<,,,,,,,,wuw44<2qrqqqqqqqrqqqrqruhuurrrqrqqqq2q",
"qqrrqqq,2,qqqquqqwq,&##,,,quw<quqqqrqquuuqqq2qqquhhurrrqqqqqrrrr",
"rqruqqq2q2qqqrur4q<,,,&<,,4ww4qqqqqrqqrurqqqqqqqruhuurrqqqqqrrrr",
"rqruqqrqqqqrquur4q<,,#o,,,4uuq<qqqquqqrurqqrqrrqquhuuurqqqqrrqqq",
"qqqqqqrqqqquruurqq<,,#o#,<quuq<<q2quqquurqquruurruhuurrqrrrrqqqq",
"qqqqqqurqqqurruqqq,&,,,<,<wuq<,4q2quqquurqqqquuuuhhurrrrrrrrqqqq",
"rqruqruuqqrrrruqqq,&,,,,,quuwq4qqqquqqrrrqqqqruuhjhuqruuuuurqqqq",
"rqruruurrquuuuurww4,<,##,quuwqqqq2qqqquuuqqrquuruhhuruuuuuurqqq2",
"qqquqruquruuuuurwwqqwq<<,<qqq4<,,,2qqquhuuuuuuurruuuuuuuuuurqqq2",
"qqqqqqqqqqqquuurqqq22,$$,q,r,q,23qq2qquuqqrrrrrruuuquurrquuqqqqq",
"qqqqrqqqq2,qqqqq2222,,,,,q,q,,$,,q2qqquurruuuuuuruqqrrqqqurqqq2q",
"qqqqrrqqqqqqqqqqq22,,,,,,2,q,,$,,2qqqqrrrruuuuuuruuqrrqqqurqqq22",
"qq2qrurqqqqqqqqrqq2,,,,,,,,2,22q,qqqqqrurrrrrrrruuuqurqqqurqqq,,",
"qq,2qrrqqqqqqqqqqq,,,$,,,,22qqqq,qqq2quurrrrrrrrruuqqqqqqurqrq,,",
"qq22qqrrqqqqqqqqqq,,,,,,,,q,q2q2,2q2,quuuuuuuurrquuqqqqqqurqrq,,",
"q22qqqqqqqqqqqqqq2,,,,,$,,q,q,2,$,q2,qruuuuuuurrquuqrqqqquqqqq,,",
",,qqqqqqq22qqqq22,,,,,$,,,q,r2q,o,qq2qrurrrrrrqqqrqqqqqqquqqqq,,",
",2qqqqqqqqqqquqqq2,,,,,$,,2222qq,,qqqqqqqqruuurrqrq,2q2qquuqqq2,",
"2qqqq2,,,,,,qrqqrq2,,,,,,,,,,,,,,,2qqqqrqqqrrrqqquqqqqqrqur22q22",
"qqqq2,,,,222quuqqq,,,,,,,,,2,,,,o,2,2qruqrruurrrquuqruruuuq,2q22",
",2qqq22qqrqqruuqq2,$$$,,,,,,2,22$,q,,2quuuuuuuurquuruuruuuq,qq2,",
",2qqqqqqqqqqqqqqqq2,,,,,o,,,22qq,qq22qruuuuurrrqquuuurruruqqqq,,",
"2qqqqqqqqqq2qqqqqqq2,,,,o,,2qqqqqqqqqqruuuuurrrqquuuuuruqrqqqq,,",
"2qqqqqqqqqqqqqrqqq2,,,,$,,qqqqqqqqqqqqruuuuurrrqruuruuruqrqqqq,q",
",qqqqqqqqqqqqqqqrqq2,,,$,,,q22,,q22qqqrrrrqqqqqqrurquurrqrqqq22q",
",qqq2qqqqqqqqqqq222,,,$o$,22,,,q,22,2quuwqruuuurqruuuurqurqqqqq,",
"2qqq2qqqqqqqqqqqqq2,,,$o$,22,,,2,,2,2ruguquuuuutuuurqrrqurqqqqqq",
"qqqqqqqqqqqqqqq2qq2,,$$$$,qq2,,2,,22qruguwuuuuuquuurqrrquuurqqqq",
"qqqqqqqqqqqqqrqqqq,,$$$,,,qq2,22,2qqqruuguuurrrqruuuuurquurqqqqq",
"qqqqqqqqqqqqqqqqq2,$$$$,,2qqq2,22qqqqruuguuurrtqruuuuuuqurqqqqqq",
"qq2qqqqq222qqqqq,,,,%%,,,,qq2,,,2qqqqruwuqruruuruurqquuuuqqqqqq2",
"q22qqq2q,,22222q2222,,,,,,,,,,,,,3qqqqwquqrrquurrrqqqqrqrqqqqq22",
"q22qqq2q,2q2,,,2qqqq3,,$,,,,,,,,,233qqqquwrrqrrqqqrqqqq,qqqq222q",
"qqq,,,22,2q2,$,q,22,,,$,q,,,,$,2,3qqqquuwwrrrrrrrrqqqqq22qq22qqq",
"2,,,,,,,qq2,,,,,,,,$oooo,,,,,,,2,3qqqquuwwurrrqqrrqqqqqq2qqqqqq2",
",22,,,,qq2,,,,,$,,$ooXoo,$$,,,,2,3qqqqwuuuuurrqqrqqqqqqq2qqqqqq,",
"qqqq2qqq,,,,22,,2,,$oooo$$$,,,,,23q22qwuwwuuurqqrqqqqqqq2222qqqq",
"qq22,2qq,,,,,22q2,,,$ooo$$,,,,,,,2q2,qwwqqrrurrrrqqqqqq22,2qqqq2",
"q2,,,q22,,22,,,q22,,,,$o,,$$,$$$,22,,qqqqqqrrrrqrqqqqqqqq,2qq2,,",
"2,,,qqq2,,,,,,,222,,,,,o,,$$$$$$,,,,2qqqqqqrrrqqrqqqqqqqq22q2,,,",
",,o,qqq,,,,,,,,,,,,,,,$o$$$oo$$$%,,,qqqqqqqrrqq3uqqqqqqqq,,qq2,2",
",,,,222,,,,,,,,2,2,,,oo$,$,,,,,,,,qqqqqqqqquqqqqqqurqqqq222222,,",
"oo$,,222,,,,$$$,,,,$,oo$,$,2,,,,2qqqq3qqqqqrq2qqqqrrqq2222,,,$oo",
"$$,,,2qq,,,,$,,,,,,$$oo$$$,q,22,qqqqqqqqqqqrqqqqqqqqq222,,,,,,,,",
"2222qqq22,,,,,,2,,,o$o o$o,2,22,2qqqqqqqq2qrqqqqqqqqq222,,,22qqq",
"qqqqqq22,,,$$,,,,,oooo $$o,,,,,,,,2q22qqqqqrqqqqqqqqq22qqq2222,q",
"qqqq222q,,,$,,,,,$oo$oo,$o,,,,,,,,,22qqqqqrrqqq,qqqqqqqqq2222qqq",
",22,,,,q,,,,,,,,,,oo,oo,,o#&#&,,,,,,,2qqq2qq2qq,,22q,,qq22222qqq",
",22,,,,2,,,,,,,,q,oo,oo,,##&o&,,,,,,,,2q,,qq2qq,,,,,,2qqqq2,,,,,",
",,,,,$$,,,,,,,,,<<#o,,##,o,,##,,,,,,,2q,q,,qqqq22qq2qqqr2qqq,,$o",
"2,,2,,,,,,,,,,2,qq,,<<,,<,<q,,<<,22,,,,,,,,2,qq2qrqqrrqurqqqqqqq",
"q<<q4<<<<qq,,4qqwwqqwwqwqqqwq4qq<qq<,<4q,,qqqqwqwuwqwqqqqqqqqqqw",
"q<,qqq<<<qq,,<qw44,,q<,<qqwuq444<qqq4qqw<<qwqquuuuwqwqqwqqqqwqqq",
"q<,<qq<,,,,,#,4qq4,,<,,,<<wuq<qq,<qqq<4q,,qw4qwuuuuwuuwuqqwuuwqq",
"qq,qq4<,,,,&,<4qqq,,<,#<,<wuq<qqqqwwq<4q,,qqqqwwuuuwuuwuuwwqqqww",
"uqqqqq44<4<,<qqq,,oo#oo,,<uuqqwuuwuuwqqw<<qwqwuwwuwqwwquwwqqqqqq",
"uwwwwqqq<<<,qqwqq<&,,##4,,uuqqwuqwwuwqqu4<qwqwuuuuuwuuquqqwwwqqq"
};
