/* XPM */
static char *_d578afb2e3d4f168eb69e25fb1e8e2cHbbrIRKZq0HubF4S[] = {
/* columns rows colors chars-per-pixel */
"64 64 160 2 ",
"   c #50311F",
".  c #523425",
"X  c #593A26",
"o  c #563629",
"O  c #5C362B",
"+  c #573A2B",
"@  c #5C3D2D",
"#  c #5C3E31",
"$  c #603F2D",
"%  c #5F402E",
"&  c #5E4234",
"*  c #5E4439",
"=  c #62422E",
"-  c #6B472F",
";  c #634435",
":  c #684634",
">  c #664836",
",  c #694936",
"<  c #644639",
"1  c #68473B",
"2  c #66493B",
"3  c #6A4B3C",
"4  c #704F3D",
"5  c #6E503E",
"6  c #71523E",
"7  c #664B40",
"8  c #6B4D41",
"9  c #704F46",
"0  c #6E5143",
"q  c #6B554A",
"w  c #735444",
"e  c #795744",
"r  c #765846",
"t  c #795946",
"y  c #745649",
"u  c #78574B",
"i  c #76594B",
"p  c #7B5C4C",
"a  c #775B50",
"s  c #7C5E51",
"d  c #7F604E",
"f  c #7E6153",
"g  c #7D6259",
"h  c #815E4D",
"j  c #82614E",
"k  c #89634C",
"l  c #836454",
"z  c #896655",
"x  c #866856",
"c  c #8A6956",
"v  c #846659",
"b  c #86695B",
"n  c #8B6C5C",
"m  c #916C56",
"M  c #916D5C",
"N  c #8E715E",
"B  c #91715E",
"V  c #8C6E61",
"C  c #8E7163",
"Z  c #8E766B",
"A  c #937462",
"S  c #977663",
"D  c #907365",
"F  c #907267",
"G  c #947266",
"H  c #907564",
"J  c #957465",
"K  c #957664",
"L  c #937464",
"P  c #997764",
"I  c #937865",
"U  c #957866",
"Y  c #967966",
"T  c #997A66",
"R  c #927469",
"E  c #947769",
"W  c #947669",
"Q  c #957968",
"!  c #95786A",
"~  c #96796B",
"^  c #96796A",
"/  c #987869",
"(  c #9B7C6A",
")  c #9B7B6C",
"_  c #9C7B6C",
"`  c #997E6D",
"'  c #9A7D6F",
"]  c #9C7C6D",
"[  c #9C7F6F",
"{  c #9B7C6C",
"}  c #977B70",
"|  c #9C7A70",
" . c #997D71",
".. c #997E73",
"X. c #9A7E72",
"o. c #9F7F72",
"O. c #9B7D71",
"+. c #A27E6A",
"@. c #9F816E",
"#. c #9D8070",
"$. c #9E8173",
"%. c #A0816F",
"&. c #A1816E",
"*. c #A18270",
"=. c #A18173",
"-. c #A28573",
";. c #A38474",
":. c #A88674",
">. c #A98876",
",. c #A38678",
"<. c #A48679",
"1. c #A78A7A",
"2. c #A6897B",
"3. c #AA8D7D",
"4. c #AA8D7F",
"5. c #AB8C7C",
"6. c #B28F7F",
"7. c #AF907E",
"8. c #AE907D",
"9. c #B5937D",
"0. c #AD8E81",
"q. c #AE9183",
"w. c #B19484",
"e. c #B39484",
"r. c #B89785",
"t. c #B99A87",
"y. c #B1958A",
"u. c #B49489",
"i. c #B69989",
"p. c #BB9C8C",
"a. c #BA9E90",
"s. c #BB9F91",
"d. c #BFA292",
"f. c #BDA193",
"g. c #C0A18F",
"h. c #C3A694",
"j. c #C2A597",
"k. c #C3A494",
"l. c #CAA996",
"z. c #C5A698",
"x. c #C7AA9A",
"c. c #C8AD9A",
"v. c #C9AC9E",
"b. c #CBAC9B",
"n. c #D0AE9E",
"m. c #CFB09E",
"M. c #D3B39E",
"N. c #CDAEA4",
"B. c #CDB1A1",
"V. c #D2B2A3",
"C. c #D3B6A6",
"Z. c #D3B5A5",
"A. c #D5B6A9",
"S. c #D7BAAE",
"D. c #DBBCAC",
"F. c #DCC0AB",
"G. c #DEC1B3",
"H. c #E3C2AF",
"J. c #E5C5B3",
"K. c #E7C7BA",
/* pixels */
"2 2 2 b v ; w y 0 d.Q < < < V 7 < 2 2 L V.x ; ; l A y 2 a.; 0 > s & Z 3 > I 0 w l > l > ; 3 s 3 X.2 7 < 8 L O z : j 3 U y & Z * ",
"< 2 R 2 w 0 v 3 & C & < f V 8 2 i i 8 3 3 t n 5 1 [ b w b ' > ; 3 i * & & c.d > &.J z , l ; > b < Z < 2 < | < M : h J j.n 2 * q ",
"s ; v.2 ; 1.p 3.1 & p ' < 7 i < a * b C.2 X d =.V ) 2 ; 3 & F ; < v V < 3 & & [ ) p r 1 > p b l a 2 & 8 7 1 1 J ; z T -.y ; 2 i ",
"y < < j.3 f & f Q w.,.; 2 L 8 7 y.q < & #.2 = ( ) 1 ; L 2 p r Q b 2 < 8 X.< 2 2 < w > b o.=.; 8 3 < 8 b < 2 o ; _ % n 2 & & V 2 ",
"< 3 2 < w v 2 v y w v E & 8 2 < v 2 X.; 2 2 t A > z 1 v > 7.; d & 0 < s & 3.; < 8 < w 3 s < V Q p < 2 s # 8 y 8 =.; 3 t C v ; 2 ",
"f y w 3 ; y b p ; 2 v n < v 2 < 2 R < 2 3 n l { > z 1 > > :.7.w 2 7 2 s y 7 s s < J 5.l < E 7 < 2 & 3 < v < l l ' > 0 > 0 2 8 8 ",
") 3 t A @ r C > A @ ; f < 7 2 7 < < f ; & 2 w d l ; > A [ r.; > b * 2 2 2 ; >.p X < < J 3 y ; y 2 3 v i 8 8 < s C 0 C ; = 1 l w ",
"O.3 4.< ; w y r < < < 3 7 < < S.V # < 3 ' 0 ; & l s 3 z.c ; : n 2 0 8 & y C ) 1 v w < 3 b i.y w d F.5 < < < $.8 < 3 w & :.; t 1 ",
"=.1 ; > r 1 w [ ; N @ 0 < 2 y v 2 R 2 ; l f p 2 > ; z @ w e z 6 3 < R 0 2 2 4.x z , 1 l z w t 3 l > 5 f < 2 8 < < R < ,.3 > t b ",
") > L 3 1 p 1 l 2 ; x.s < & 2 $.< 8 n b p p w l 3 [ > 3 : t 3 c Q w @ b l > z.k.> 3 3 l < ; 1 r w ; 5.y 3 p & < $.0 ; w = N z A ",
": 3 p , ; 1 b k.3 < 8 < y 8 < s < ; 8 & 0 3 3 3 & 2.; z p = n n =.> 3 F 3 n @ 1 r.e J > 3 b n c > :.X p L 3 7 b v b z , 1 O.b ; ",
"p.r : z > l J l L l 0 E 7 0 < w v v > 2 l e.2 w Q v l 1 4 3 T Z.; 0 2 x 3 v @.; ; j ; d @ > t x p c p l x 3 3 1 > > > l 1 > 1 3 ",
"= w j r c l 3 3 b n b 3 a 2 2 8 f w > w d n 2 ' # 3 < :., , t 5 2 2 & 0 # < 1.1 l [ s 1 f 2 w.> e = p ; : : ; 3 b p z B > > 2 F ",
"j b.; w z : J ; > < 2 < y 2 ; b 3 1 > p 3 r i.Q j.0 v r 3 5.c n 3 8 f i F n > > b < n 0 Q 3 d.1 ; n : w : n.J p 4 n 1 ) 1 3 y.& ",
", c P r.4 c ; > y s f 3 v ; b F 3 _ ) ; = = 1.b 2 2 b #.> 5 3 c b 8 V < y 2 > < < ) < 1.; 2 s ; [ B >.( M z t h 3 = 4 z ; 2 < v ",
"5.r.> 1 z > 3 p t # 2 v p.8 ; # 3 1 1 ) 1 1 r l 2 C 2 @ 1 6 X 6 < 2 8 7 v ; < 3 y 3 < > w ; l 2 > ; A :.: c h ; c B , ; > s < X.",
"> p < > < C F V v l < 3 < E b y ; l v 3 & n 2 > l 1 A p X :., h b ; 3 2 ; 2 v E 7 1 s w & y ; 3 ' z 3 ; : p : e z p :.1.2 < < 2 ",
"z 2 p.; ; 3 b p O.# 8 p ; l ; s 3 1 ; C C.C q.f < n p t > B M B 2 V 2 r 0 0.; j.a < 7 8 w y w p.r 3 p 3 , = 3 >.J > < ,.Z a.2 p ",
"; ; ; y C 3 3 b & 8 2 L l s w > < :.w 2 2 ) C V @ @ > = ; A ; ; A < 3 ; r w 3 3 < y.V W ; 0 U 3 p > ; l =.>.:.;.J.$ w.F 0 7 # v ",
"0 f 1 X ; 3 w 2 3 R y w p 8 8 < ; b ; J & & v y o F 1 ) t J z ) 1 0 ; w C 1.< 1 V R < 8 & 2 C v ; 1.l J > ; b.1 b > 3 2 2 q * & ",
"r z.3 1 n 1 1 > < > ; 3 n b 2 + ; B.q.< 2 ; < C 2 b r :.: z = J b < 3 3 6 n b > y w u < & V 2 & & ; F 1 w 3 t p 8 3 & < v W s g ",
"A b b l < p n p < l 1 L L 2 ; l ; v 3 + < v ; ; p ; > p > J B l 8 < l > { r 3 ; 1 < s 7 f 2 8 q V 2 w E ; ; > [ w ) w 2 8 < 2 * ",
"n :.1 3 3 > n ; < ; 1 3 8 ; ' 3 V 3 ; f f ; f 2 b 2 =.> b.e X ) 9 y l ; l ; B T C z y 2 a 2 * q < v < < ~ F 3 8 ; f ; 8 < # 2 2 ",
"( 3 5.; 3 3 1 b < ) L K.2 y < $.2.2 < 2 2 ; s b ; # [ z 4.t : { 3 ; =.> p.; ; d q.w 3 < < s 8 2 < i V & 2 f w V 2 2 b < 8 y 2 8 ",
"B ; n : n > l 1 ; ; ;.z ; i 2 Q 2 R y v < L a.q.y 0 b n > 3 p.; y v p.3 n n , &.; #.8 2 b f g < y.y.~ 3 ' 0 3 8 ; y # & v < & < ",
"4 3 [ l A 3 > b p > ; 1 2 v & $.2 & 3.2 < R l w & 0 > 3 3 l 1 1 ; < y x :.; B ; 5 b & # 8 8 C 8 < ; @ 2 C # w 1 0 F 5.3 8 8 2 8 ",
"1.1 z p n J.w > ; 1 < z 2 < ,.< C < 8 f < C & < w v 8 l , > A 3 3 # 1 ) ; z , X , w y 2 & v 2 0 2 3 8 n l > w > A < < y # 0 w f ",
"p ; t T 3 6 ; > :.1 s b w ; n 0 ; d.3 < 2 b < i ; 2 l [ > 3 n 1 < 2 E b > n 3 j 3 1 0 2 2 & 2 & 1 y > 8 1 z l ; k.p l 1 2 v p b ",
"t : : J r p [ 3 3 b 3 b 0 ; ; 3 f 2 8 s i 2 < < 2 2 r C.V w t t 3 w 0 w p n t B l s R & s F v b >.n , 3 l A ) t { = :.1 ; l ; T ",
", , X j ;.1 ) l b ; l p 3 b v.n ; 2 2 0 0 2 V 2 2 2 & ; 3 3 , e.2 f 3 A ; r ) z.; r.2 b 0 w 2 3 e r > p.1 x 4.d > l.z ; b ; k.T ",
", t = e : z J J > p ;.; . 0 < E ; C v 2 V b < 2 V C ; x.; 1 3 9 < & p ; F w > r ; < s l l t p -.e $ w , > z w > , 1 , : , 3 3 l ",
"&.z A r.; { X b p ; ; b o ; > p v < < 8 < y 8 f ; :.s ) 8 1 e { ; 0 8 p 3 % n b ; C < 8 2 & A z A : t > J w t n n = ; ; > 3 3 , ",
"+.J P 3 w 3 > #.3 w 1 z >.z 4 , U ; v a 2 # x > > 3 ; < w ; 5 U , z 8 0 7.w < < > ; ; 8 f 0 3 ; > 6._ w ; 4 6 n 1 @ w ; :.; p ; ",
", M > ; 1 1 v 2 0 ; p 1 r.B c 6 n 2 i # s 0 > N Y x ; 2 < y 3 n N t ; V > ; < R N 1.2 } v 8 u V l ; [ 1 p 6 b ; @ 3 z 3 3 2 & > ",
"{ 3 ; p J ; ; y t p t ; = t $ 6 b z 3 | 8 2 h.6 t x 2 V W 2 3 5 1 1 A.) ; b b 2 2 ; 8 2 2 < l v 8 3 3 c ; _ t { 5.s < 0 l l < b ",
"j =.3 t l 3 8 f Q ; 1.l { p.t ; = 1 < ; < p U 3 > A w C < 2 0 v.w y ; 3 ; 2 i 2 F B.< ; 0 < i < p t n h < 1 ; A 1 w 2 2 ; > f 1.",
"w , p p b.w ; b 3 =.> 3 t X e M.t 1 < z.; w > p 5.; C 7 N.& @ ; 2 f 3 y ; < v.x 8 n 0 n ;.; t 1 1 t B > ; z 3 > :.3 b 1 V 1 L w ",
"k.4 > J J 3 2 0 2 > j , e c 6 p B :.3 ; y 5.1 , d C i E 2 2 < r & C @ 3 | 2 & > & 3 @ 2 ; < t z 1 p p l n = w @ :.1 J 1 E 3 > 1 ",
", 3 A @ 2 2 b #.& l z n j ; z n , A p 1 > l m.> & 3 < b < 7 3 2 3.C p.p < 0.l 4.7 2 z 6 > D.z ) , b 8 ; w X @ #.V.; w ; 3 ; ; , ",
"; t ; b s.; ,.; C ; > 1 6., , t w r :.p 3 x 1 n p.n 2 3 2 ; 2 < & & ; 2 l < ' N E 2 > % < 8 : j -.q.2 3 p > > & p w 3 l < s z 7.",
"; -.1 b b 0 X.; C ; > 3 ; { n = b n e e p >   3 < ~ y z v < n V < > y > ; 7 p.r s E ) l ) ) n.{ n s =.w < & p & w J 8 # 3 t w > ",
"l @.. l Q n 8 s < 2 < >.n ; 3 = > t ; e > 3 . 8 < C > 1 C 0 b 0 3 s @ #.< l =.n 2 l z z e.; T ; n C 5 2 ; < q.; d > b l ) T p l ",
"t e r l 2 1 0 Q < < w w p J h ; p 3 , T h., ; l 3 b 2 2 r F 3 $.1 1 -.3 ; 8 f 2 < 2 y 1 n > :.c w 3 3 0 3 #.,.; ' 2 p ; 3 ; ; ; ",
"H.e T l & ; 2 8 B.v 0 b ; < t { 3 z 3 n p.; 4.5.< # ; > t ; ; 2 [ t d < [ ; 2 < < v p.1 1 > ; , 3 2 ; v 3 0 2 Q y ; > n 1 8 3 e.",
", , h > v C ' 2 < 2 n y s r ; J ; 1 3 n j 6 8 v # 3 b c @.w 2 w.z 1 4 n b < 7 3 2 v n F > > b ; ; < w w 2 2 < Q 2 < & w C + f n ",
"4 :., ; ; 2 2 ; ,.8 2 y 5.p ; 1 V =.n ; ; 3 w u R 3 z = U > 3 1 1.l ; > @ J v < & C 0 v ; ; z 3 ; V.8 2 3 > 8 3 a < C 2 ; b ) > ",
"m , = n D.n + 3 < 8 0 < 3 2 2 ; s 3 -., z &.3 3 l ; 3 J B 6 @ > z z 3 > ; b N.7 b ; < V < 1 n @ 3 L 3 ; n v s w 2 V ; n 3 X & v ",
"B l.b ; ) f 2 < 2 & 1.; < < p v b ; > e., 3 < V 3 E N t 9.( 3 b p ; 3 p z d E < ; p < < % p.; 1 < f f f # u s > p ) 2 & ; U ; R ",
"w z ; w 2 ,.< 2 w.y 1 X ; b 1 3 ,.F x.1 N > b j 3 4 :.t 2 # b 8 l @ 3 [ 1 p.8 y r p > l $ ) z 4.; p D.> < l x.w > b 1 r > Q 0 q.",
"n v l 2 # f 8 < e.; , g.l l $ V b 3 F ; , 3 z e l J.t w f 2 * < f p p ; > p # 3 r ; @ t t p l 5 b C i.> t 1 3 1.n ; < 1 ' r v & ",
"y f 2 w & & l 2 2 [ U c 3 > > < ; & ; b n 3 t b > > 1 f C p b s 3 0 # 3 y r =.z > v ; J > -.x ; 2 #.; 0 y # ; > > 0.b n l y 1 j.",
"; ; p C ; n G.0 > = J T z 3 w A y 8 ) ; ; 0 ; U ; n f > 2 # 8 0 L p 1.f 2 . > 3 1 w > A 6 ; n 3 Q ; ; @ 3 < ) 1 # ; < n 2 1 3 ; ",
"3 w ; f y 0 > @ 3 3 = = t.n ) 3 ; 0 & ; & ; & ; < n V & v v 3 < 3.V 2 2 & 2 3 ; 1.Q v n w ; > < ; F 2 f V ; 1 r i.; =.1 p ; #.1 ",
"p z Q ; 3 0 w A ; > T 6 c ; , e.3 n b 0 v ; 0 < w + 2 F E y + y < C w v 2 & p q.0 & v.l 2 0 ; l k.> n p.b l p 5.3 n > 1 p 1 @ f ",
"( @ p f & v 2 > U 5 ; c ; [ V 3 > ; < p q.s < f.f i & & < < 3 b C S.3 Q v w 8 Q v 3 2 8 0 2 2 # > l l n w > 3 # ; A A t 8 < < & ",
"Q 1.2 b V ~ < ; ; n > > 1.p r =.> 2 < ;.2 3 a.< 2 f 2 b $.; 3 z.# 2 & 0 V q.s v n & 8 < 3 F l 2 2 w ; 9 1 r 3 x > @ 1 A v ; 3 p ",
"v ; 8 < < b ; l 3 J ; 0.l L ; ; z 3 X.2 3 < < s 0 ; F < 2 > > 1 # X J 1 0 0 < & 2 3 8 2 $.2 y y > z ; 3 V 1 w @ ; z 2 1.; p 8 & ",
"2 2 & 7 i f.o.u L < n > 8 b E 2 p #.2.j.2 2 V v Q 0 2 3 n t > p t 1 ; > 2 3 2 < V & f i < a b < C z 3 z < 3 3 A :.w # < 2 2 f $.",
"; # 8 y 9 9 < 2 p b 3 3 v < 2 8 & C 0 < 2 ; y 5 3 p 8 3.[ r.> l r z c > 8 w t 1 ; # 2 < < 8 S.& ' > =.D.z ; < 3 > r 2 $.< <.3 < ",
"2 @ 2 i V 7 2 < x.< 1 b < 2 < V # * B.f & > @ Z.1 ; w ; ) < E < c z :.r ; 3 1 1 3 v & 2 7 V * 8 ; w 3 l > 1 n 1 [ J < y & q.& < ",
"b ' s q.v 8 < L w 1 l r 3 ; 0 3 < * 8 j.s l $ = { :.p { r > y y ; { 3 6 4 b p b p C 3 2 2 p V p 3 t.z ; 1 L ; > y < L A.w X 8 0 ",
"F 2 2 C V 3 E :.; 3 :.z d.@ 7 # v 2 y.; ; e c k P 4 = = 1 1 2 # &.c 5.; 3 : > r r ; ) ; & ; < # w z ; e z w 3 v 3 3 < i 2 s b 0 ",
"A r ; 1 < 5.; 1 < w n ; Q w & 2.* 8 i & r , : 9.m +.B $ p @ 2 3 b : = M J ; w ; :.3 C 8 ; ; < ' t t ; 1 e.p b e.b l < 0 ; ; s < ",
"3 , w 0 < > >.; % ; j e t b 0 < & 2 & w > ; , m k - c n B ' ;.< w j , P = : l t w r 3 8 2 2 ,.3 n w r r ; > 1.[ < < b & Q 2 b 8 "
};
